<svg xmlns="http://www.w3.org/2000/svg" xmlns:xlink="http://www.w3.org/1999/xlink" width="93" zoomAndPan="magnify" viewBox="0 0 69.75 44.999999" height="60" preserveAspectRatio="xMidYMid meet" version="1.0"><defs><clipPath id="b34cf8af3c"><path d="M 0.589844 0.722656 L 43.433594 0.722656 L 43.433594 43.683594 L 0.589844 43.683594 Z M 0.589844 0.722656 " clip-rule="nonzero"/></clipPath><clipPath id="83ae1e6a29"><path d="M 37.539062 7.535156 C 36.714844 8.148438 35.921875 8.820312 35.171875 9.542969 C 38.332031 12.828125 40.273438 17.292969 40.273438 22.214844 C 40.273438 27.273438 38.21875 31.851562 34.898438 35.164062 L 37.097656 37.347656 C 40.972656 33.476562 43.371094 28.125 43.371094 22.214844 C 43.371094 16.53125 41.152344 11.363281 37.539062 7.53125 M 31.886719 37.59375 C 29.03125 39.433594 25.632812 40.503906 21.980469 40.503906 C 11.878906 40.503906 3.691406 32.316406 3.691406 22.214844 C 3.691406 12.109375 11.878906 3.921875 21.980469 3.921875 C 25.585938 3.921875 28.949219 4.964844 31.78125 6.765625 L 34.183594 4.644531 C 30.722656 2.234375 26.515625 0.824219 21.980469 0.824219 C 10.167969 0.824219 0.59375 10.398438 0.59375 22.214844 C 0.59375 34.027344 10.167969 43.605469 21.980469 43.605469 C 26.574219 43.605469 30.828125 42.15625 34.3125 39.691406 C 33.460938 39.027344 32.648438 38.328125 31.886719 37.59375 M 34.507812 35.542969 C 33.859375 36.152344 33.164062 36.714844 32.429688 37.226562 C 33.171875 37.96875 33.976562 38.664062 34.84375 39.304688 C 35.496094 38.8125 36.121094 38.285156 36.710938 37.722656 C 35.914062 37.039062 35.179688 36.308594 34.507812 35.542969 M 34.707031 5.023438 C 33.867188 5.652344 33.070312 6.355469 32.316406 7.121094 L 34.753906 9.121094 L 37.132812 7.117188 C 36.378906 6.359375 35.570312 5.660156 34.707031 5.023438 " clip-rule="nonzero"/></clipPath><clipPath id="38693af50c"><path d="M 26.15625 7.46875 L 53.847656 7.46875 L 53.847656 43.566406 L 26.15625 43.566406 Z M 26.15625 7.46875 " clip-rule="nonzero"/></clipPath><clipPath id="de32d6a3a7"><path d="M 53.835938 42.570312 C 47.808594 44.410156 41.042969 43.574219 35.484375 39.761719 L 34.875 39.328125 C 34.863281 39.320312 34.851562 39.3125 34.84375 39.304688 C 33.976562 38.664062 33.171875 37.96875 32.429688 37.226562 L 31.964844 36.746094 C 25.027344 29.363281 24.132812 17.859375 30.359375 9.417969 C 30.859375 8.742188 31.390625 8.101562 31.953125 7.503906 C 32.804688 8.117188 33.617188 8.789062 34.382812 9.503906 C 33.886719 10.03125 33.414062 10.59375 32.976562 11.191406 C 27.710938 18.328125 28.410156 28.117188 34.070312 35.027344 L 34.507812 35.542969 C 35.179688 36.308594 35.914062 37.039062 36.710938 37.722656 L 37.308594 38.214844 C 37.515625 38.378906 37.726562 38.542969 37.945312 38.703125 C 42.761719 42.253906 48.535156 43.484375 53.835938 42.570312 " clip-rule="nonzero"/></clipPath><clipPath id="7c88f7252e"><path d="M 35.265625 0.722656 L 68.996094 0.722656 L 68.996094 20.605469 L 35.265625 20.605469 Z M 35.265625 0.722656 " clip-rule="nonzero"/></clipPath><clipPath id="431205949c"><path d="M 68.910156 20.605469 C 67.957031 15.726562 65.160156 11.09375 60.726562 7.820312 C 53.605469 2.566406 44.378906 2.390625 37.707031 6.730469 C 36.933594 5.980469 36.121094 5.273438 35.269531 4.613281 C 42.585938 -0.535156 52.671875 -0.703125 60.269531 4.902344 C 65.511719 8.773438 68.476562 14.582031 68.910156 20.605469 " clip-rule="nonzero"/></clipPath><clipPath id="048e375d89"><path d="M 57.042969 35.875 L 61.777344 35.875 L 61.777344 37.886719 L 57.042969 37.886719 Z M 57.042969 35.875 " clip-rule="nonzero"/></clipPath><clipPath id="c48e3bde10"><path d="M 61.667969 36.871094 L 59.058594 35.949219 L 57.144531 36.285156 L 59.636719 37.78125 Z M 61.667969 36.871094 " clip-rule="nonzero"/></clipPath><clipPath id="9b47931fca"><path d="M 54.203125 35.519531 L 68.878906 35.519531 L 68.878906 44.277344 L 54.203125 44.277344 Z M 54.203125 35.519531 " clip-rule="nonzero"/></clipPath><clipPath id="8ed1b1c226"><path d="M 68.796875 36.042969 C 67.335938 35.421875 65.679688 35.453125 64.238281 36.125 L 57.308594 39.367188 L 55.519531 38.195312 L 54.398438 38.664062 L 55.839844 41.390625 L 54.273438 42.433594 L 56.714844 41.9375 L 61.726562 39.855469 L 61.046875 44.273438 L 62.5 43.347656 L 64.449219 38.605469 Z M 68.796875 36.042969 " clip-rule="nonzero"/></clipPath><clipPath id="f58e8f5042"><path d="M 32.308594 5 L 37.160156 5 L 37.160156 9.125 L 32.308594 9.125 Z M 32.308594 5 " clip-rule="nonzero"/></clipPath><clipPath id="1ea5306c57"><path d="M 37.132812 7.117188 L 34.753906 9.121094 L 34.683594 9.0625 L 34.570312 8.96875 L 32.316406 7.121094 C 33.070312 6.355469 33.867188 5.652344 34.707031 5.023438 C 35.570312 5.660156 36.378906 6.359375 37.132812 7.117188 " clip-rule="nonzero"/></clipPath><clipPath id="81261fe21c"><path d="M 31.953125 35 L 37.398438 35 L 37.398438 39.777344 L 31.953125 39.777344 Z M 31.953125 35 " clip-rule="nonzero"/></clipPath><clipPath id="6a31fdf466"><path d="M 37.308594 38.214844 C 36.71875 38.753906 36.113281 39.269531 35.484375 39.761719 L 34.875 39.328125 C 34.863281 39.320312 34.851562 39.3125 34.84375 39.304688 C 33.976562 38.664062 33.171875 37.96875 32.429688 37.226562 L 31.964844 36.746094 C 32.695312 36.210938 33.398438 35.636719 34.070312 35.027344 L 34.507812 35.542969 C 35.179688 36.308594 35.914062 37.039062 36.710938 37.722656 Z M 37.308594 38.214844 " clip-rule="nonzero"/></clipPath><clipPath id="c8ebf6a1ae"><path d="M 31.597656 9.835938 L 37.871094 9.835938 L 37.871094 32.558594 L 31.597656 32.558594 Z M 31.597656 9.835938 " clip-rule="nonzero"/></clipPath><clipPath id="717943d1ca"><path d="M 31.613281 26.414062 L 34.726562 9.925781 L 37.835938 26.414062 L 34.726562 32.457031 Z M 31.613281 26.414062 " clip-rule="nonzero"/></clipPath></defs><g clip-path="url(#b34cf8af3c)"><g clip-path="url(#83ae1e6a29)"><path fill="#2e3192" d="M 0 0.132812 L 69.46875 0.132812 L 69.46875 44.867188 L 0 44.867188 Z M 0 0.132812 " fill-opacity="1" fill-rule="nonzero"/></g></g><g clip-path="url(#38693af50c)"><g clip-path="url(#de32d6a3a7)"><path fill="#ed1c24" d="M 0 0.132812 L 69.46875 0.132812 L 69.46875 44.867188 L 0 44.867188 Z M 0 0.132812 " fill-opacity="1" fill-rule="nonzero"/></g></g><g clip-path="url(#7c88f7252e)"><g clip-path="url(#431205949c)"><path fill="#ed1c24" d="M 0 0.132812 L 69.46875 0.132812 L 69.46875 44.867188 L 0 44.867188 Z M 0 0.132812 " fill-opacity="1" fill-rule="nonzero"/></g></g><g clip-path="url(#048e375d89)"><g clip-path="url(#c48e3bde10)"><path fill="#231f20" d="M 0 0.132812 L 69.46875 0.132812 L 69.46875 44.867188 L 0 44.867188 Z M 0 0.132812 " fill-opacity="1" fill-rule="nonzero"/></g></g><g clip-path="url(#9b47931fca)"><g clip-path="url(#8ed1b1c226)"><path fill="#231f20" d="M 0 0.132812 L 69.46875 0.132812 L 69.46875 44.867188 L 0 44.867188 Z M 0 0.132812 " fill-opacity="1" fill-rule="nonzero"/></g></g><g clip-path="url(#f58e8f5042)"><g clip-path="url(#1ea5306c57)"><path fill="#231f20" d="M 0 0.132812 L 69.46875 0.132812 L 69.46875 44.867188 L 0 44.867188 Z M 0 0.132812 " fill-opacity="1" fill-rule="nonzero"/></g></g><g clip-path="url(#81261fe21c)"><g clip-path="url(#6a31fdf466)"><path fill="#ed1c24" d="M 0 0.132812 L 69.46875 0.132812 L 69.46875 44.867188 L 0 44.867188 Z M 0 0.132812 " fill-opacity="1" fill-rule="nonzero"/></g></g><g clip-path="url(#c8ebf6a1ae)"><g clip-path="url(#717943d1ca)"><path fill="#231f20" d="M 0 0.132812 L 69.46875 0.132812 L 69.46875 44.867188 L 0 44.867188 Z M 0 0.132812 " fill-opacity="1" fill-rule="nonzero"/></g></g></svg>